<mxfile host="app.diagrams.net" modified="2023-05-24T07:54:42.380Z" agent="Mozilla/5.0 (Macintosh; Intel Mac OS X 10_15_7) AppleWebKit/537.36 (KHTML, like Gecko) Chrome/113.0.0.0 Safari/537.36" version="21.3.2" etag="esYDpQQ9s2A1UGPeTz6S" type="github">
  <diagram name="Page-1" id="ik0dF13swjTm0sxKbkVH">
    <mxGraphModel>
      <root>
        <mxCell id="0" />
        <mxCell id="1" parent="0" />
      </root>
    </mxGraphModel>
  </diagram>
</mxfile>
